# File created by Blade
# Date/Time:  Wed Jan 21 18:02:19 2015
# Frame Rate: 120.000 fps
#------------------------------------------------------
:FULLY-SPECIFIED
:DEGREES
1241
root 22.091628 35.482721 -24.154631 -169.623147 -1.291740 -178.260356
Spine -22.191838 2.067688 0.568548
Head 12.924520 -3.148951 0.362745
LeftShoulder -12.717098 -31.443911 20.217767
LeftArm 8.052326 6.869737 -3.251517
LeftForeArm 13.483634 -0.000000 -0.888965
LeftHand -7.426535 -0.000000 -0.436702
LeftHandThumb1 -26.253704 0.000000 33.147579
RightShoulder -13.714589 -5.192949 -11.186256
RightArm 5.646898 33.361948 6.234236
RightForeArm -40.676846 -0.000000 4.841344
RightHand -4.545154 -0.000000 8.785330
RightHandThumb1 -24.326973 -0.000000 -32.862282
LeftUpLeg -1.871340 8.276883 4.050377
LeftLeg -4.247271 -0.000000 0.000000
LeftFoot -19.543833 25.865266 -12.947342
LeftToeBase 24.773289 -0.000000 -0.000000
RightUpLeg -2.290430 -3.285158 1.842014
RightLeg -2.729277 -0.000000 0.000000
RightFoot -21.909142 -22.309306 16.737407
RightToeBase 24.213396 -0.000000 -0.000000
1242
root 22.061857 35.481636 -24.180399 -169.686935 -1.326527 -178.265708
Spine -22.150624 2.030953 0.592250
Head 12.959329 -3.271512 0.344124
LeftShoulder -12.810879 -31.507042 20.303196
LeftArm 7.915921 6.795388 -3.286032
LeftForeArm 13.618654 -0.000000 -1.000659
LeftHand -7.445054 -0.000000 -0.676570
LeftHandThumb1 -26.253704 0.000000 33.147579
RightShoulder -13.854447 -5.095196 -11.245331
RightArm 5.642687 33.770619 6.256477
RightForeArm -40.624814 0.000000 4.757020
RightHand -4.600815 -0.000000 8.802223
RightHandThumb1 -24.326973 -0.000000 -32.862282
LeftUpLeg -1.796039 8.225945 4.026377
LeftLeg -4.186726 -0.000000 0.000000
LeftFoot -19.632400 25.811159 -12.947458
LeftToeBase 24.759695 -0.000000 -0.000000
RightUpLeg -2.178014 -3.356733 1.799707
RightLeg -2.743131 -0.000000 0.000000
RightFoot -21.874895 -22.357346 16.684190
RightToeBase 24.174111 -0.000000 -0.000000
1243
root 22.031644 35.480769 -24.202937 -169.718025 -1.281758 -178.266180
Spine -22.150142 2.051440 0.622095
Head 13.014750 -3.299673 0.303648
LeftShoulder -12.903701 -31.535625 20.379259
LeftArm 7.752613 6.698944 -3.339473
LeftForeArm 13.655535 0.000000 -1.095509
LeftHand -7.595455 -0.000000 -0.758199
LeftHandThumb1 -26.253704 0.000000 33.147579
RightShoulder -13.939743 -4.999343 -11.320303
RightArm 5.603257 34.186297 6.287960
RightForeArm -40.608229 0.000000 4.680689
RightHand -4.808427 -0.000000 8.798334
RightHandThumb1 -24.326973 -0.000000 -32.862282
LeftUpLeg -1.737734 8.238701 3.988717
LeftLeg -4.137617 -0.000000 0.000000
LeftFoot -19.704358 25.769721 -12.945283
LeftToeBase 24.741026 -0.000000 -0.000000
RightUpLeg -2.122306 -3.345268 1.748446
RightLeg -2.731974 -0.000000 0.000000
RightFoot -21.869756 -22.330036 16.819041
RightToeBase 23.957154 -0.000000 -0.000000
1244
root 22.001514 35.479474 -24.226375 -169.750371 -1.228114 -178.272429
Spine -22.156431 2.090032 0.631900
Head 13.075550 -3.308430 0.303911
LeftShoulder -12.973719 -31.554184 20.450448
LeftArm 7.591760 6.611072 -3.406776
LeftForeArm 13.625747 -0.000000 -1.189142
LeftHand -7.728026 0.000000 -0.797306
LeftHandThumb1 -26.253704 0.000000 33.147579
RightShoulder -14.011164 -4.923775 -11.371405
RightArm 5.524295 34.659273 6.293608
RightForeArm -40.668385 -0.000000 4.600220
RightHand -4.790895 0.000000 8.866475
RightHandThumb1 -24.326973 -0.000000 -32.862282
LeftUpLeg -1.683454 8.296610 3.944075
LeftLeg -4.075153 -0.000000 0.000000
LeftFoot -19.767361 25.690344 -12.916907
LeftToeBase 24.709655 -0.000000 -0.000000
RightUpLeg -2.067954 -3.369097 1.689066
RightLeg -2.710915 -0.000000 0.000000
RightFoot -21.859615 -22.322176 16.816123
RightToeBase 23.890658 -0.000000 -0.000000
1245
root 21.972638 35.478417 -24.244631 -169.770380 -1.200753 -178.276018
Spine -22.156023 2.100771 0.653777
Head 13.101705 -3.304426 0.311933
LeftShoulder -13.039930 -31.590900 20.500943
LeftArm 7.400623 6.485913 -3.465472
LeftForeArm 13.608824 -0.000000 -1.249931
LeftHand -7.809872 -0.000000 -0.872410
LeftHandThumb1 -26.253704 0.000000 33.147579
RightShoulder -14.072551 -4.816869 -11.441099
RightArm 5.431224 35.129258 6.353886
RightForeArm -40.791289 -0.000000 4.596278
RightHand -4.902518 0.000000 8.896208
RightHandThumb1 -24.326973 -0.000000 -32.862282
LeftUpLeg -1.665567 8.350836 3.902535
LeftLeg -3.998305 -0.000000 0.000000
LeftFoot -19.835382 25.601622 -12.877975
LeftToeBase 24.726004 -0.000000 -0.000000
RightUpLeg -2.030514 -3.429653 1.636940
RightLeg -2.698217 -0.000000 0.000000
RightFoot -21.860312 -22.296971 16.732847
RightToeBase 24.062187 -0.000000 -0.000000
1246
root 21.943133 35.476457 -24.265850 -169.837913 -1.151946 -178.282022
Spine -22.102887 2.128720 0.668746
Head 13.134855 -3.293631 0.307301
LeftShoulder -13.102609 -31.598703 20.542518
LeftArm 7.227944 6.368063 -3.524881
LeftForeArm 13.603714 0.000000 -1.329389
LeftHand -7.902344 -0.000000 -0.939804
LeftHandThumb1 -26.253704 0.000000 33.147579
RightShoulder -14.130179 -4.696691 -11.491546
RightArm 5.343402 35.454983 6.374447
RightForeArm -40.698810 0.000000 4.593955
RightHand -5.083669 0.000000 9.053794
RightHandThumb1 -24.326973 -0.000000 -32.862282
LeftUpLeg -1.568346 8.339824 3.866430
LeftLeg -3.958004 -0.000000 0.000000
LeftFoot -19.912404 25.590289 -12.876660
LeftToeBase 24.700273 -0.000000 -0.000000
RightUpLeg -1.937803 -3.465793 1.576257
RightLeg -2.694458 -0.000000 0.000000
RightFoot -21.881856 -22.204565 16.760888
RightToeBase 24.149964 -0.000000 -0.000000
1247
root 21.915121 35.474084 -24.286414 -169.898197 -1.080763 -178.279078
Spine -22.054096 2.172393 0.699242
Head 13.147271 -3.298986 0.269083
LeftShoulder -13.184811 -31.638203 20.593710
LeftArm 7.039613 6.289484 -3.596943
LeftForeArm 13.652196 -0.000000 -1.365260
LeftHand -7.998272 -0.000000 -0.994037
LeftHandThumb1 -26.253704 0.000000 33.147579
RightShoulder -14.153523 -4.584091 -11.544309
RightArm 5.215295 35.786919 6.369765
RightForeArm -40.676664 -0.000000 4.547979
RightHand -5.038860 -0.000000 9.182006
RightHandThumb1 -24.326973 -0.000000 -32.862282
LeftUpLeg -1.459693 8.300126 3.839870
LeftLeg -3.946068 -0.000000 0.000000
LeftFoot -19.980577 25.640167 -12.843571
LeftToeBase 24.701715 -0.000000 -0.000000
RightUpLeg -1.855466 -3.460443 1.519703
RightLeg -2.681557 -0.000000 0.000000
RightFoot -21.867572 -22.180517 16.769721
RightToeBase 24.085616 -0.000000 -0.000000
